<svg width="1920" height="1080" viewBox="0 0 1920 1080" fill="none" xmlns="http://www.w3.org/2000/svg">
  <defs>
    <linearGradient id="g1" x1="0" y1="0" x2="1920" y2="1080" gradientUnits="userSpaceOnUse">
      <stop stop-color="#7AA2FF"/>
      <stop offset="1" stop-color="#66E3C4"/>
    </linearGradient>
    <radialGradient id="g2" cx="0" cy="0" r="1" gradientUnits="userSpaceOnUse" gradientTransform="translate(420 260) rotate(34) scale(540 320)">
      <stop stop-color="#FFFFFF"/>
      <stop offset="1" stop-color="#FFFFFF" stop-opacity="0"/>
    </radialGradient>
    <radialGradient id="g3" cx="0" cy="0" r="1" gradientUnits="userSpaceOnUse" gradientTransform="translate(1480 760) rotate(-18) scale(620 300)">
      <stop stop-color="#FFFFFF"/>
      <stop offset="1" stop-color="#FFFFFF" stop-opacity="0"/>
    </radialGradient>
  </defs>

  <rect width="1920" height="1080" fill="#0B1020"/>
  <rect width="1920" height="1080" fill="url(#g1)" fill-opacity="0.32"/>
  <ellipse cx="420" cy="260" rx="540" ry="320" fill="url(#g2)"/>
  <ellipse cx="1480" cy="760" rx="620" ry="300" fill="url(#g3)"/>

  <g stroke="#FFFFFF" stroke-opacity="0.2">
    <path d="M0 120H1920"/>
    <path d="M0 300H1920"/>
    <path d="M0 480H1920"/>
    <path d="M0 660H1920"/>
    <path d="M0 840H1920"/>
    <path d="M0 1020H1920"/>
    <path d="M160 0V1080"/>
    <path d="M400 0V1080"/>
    <path d="M640 0V1080"/>
    <path d="M880 0V1080"/>
    <path d="M1120 0V1080"/>
    <path d="M1360 0V1080"/>
    <path d="M1600 0V1080"/>
    <path d="M1840 0V1080"/>
  </g>
</svg>
